<svg xmlns="http://www.w3.org/2000/svg" version="1.1" xmlns:xlink="http://www.w3.org/1999/xlink" width="512" height="512"><svg width="512" height="512" viewBox="0 0 512 512" version="1.1" xmlns="http://www.w3.org/2000/svg" xmlns:xlink="http://www.w3.org/1999/xlink" xml:space="preserve" style="fill-rule:evenodd;clip-rule:evenodd;stroke-linejoin:round;stroke-miterlimit:2;">
    <g id="SvgjsG1258" transform="matrix(0.333333,0,0,0.333333,-1792,-85.3333)">
        <g transform="matrix(0.916561,0,0,0.873774,5306.64,150.234)">
            <rect x="75.672" y="121.045" width="1675.83" height="1757.89" style="fill:rgb(200,200,200);fill-opacity:0;"></rect>
            <path d="M1751.5,121.045L1751.5,1878.94L75.672,1878.94L75.672,121.045L1751.5,121.045ZM1620.58,258.38L206.596,258.38L206.596,1741.6L1620.58,1741.6L1620.58,258.38Z" style="fill:rgb(200,200,200);"></path>
        </g>
        <g transform="matrix(0.897436,0,0,0.897436,5230.52,912.531)">
            <g transform="matrix(1200,0,0,1200,397.133,411.866)">
                <path d="M0.389,-0C0.334,-0 0.291,-0.016 0.258,-0.049C0.225,-0.082 0.208,-0.125 0.208,-0.178L0.208,-0.617L0.027,-0.617L0.027,-0.73L0.333,-0.73L0.333,-0.181C0.333,-0.16 0.339,-0.144 0.351,-0.132C0.362,-0.119 0.378,-0.113 0.398,-0.113L0.559,-0.113L0.559,-0L0.389,-0Z" style="fill:rgb(200,200,200);fill-rule:nonzero;"></path>
            </g>
        </g>
        <g transform="matrix(0.897436,0,0,0.897436,4916.91,-85.387)">
            <g transform="matrix(1200,0,0,1200,1296.18,1601.83)">
                <path d="M0.004,0.18L0.12,-0.55L0.242,-0.55L0.226,-0.452C0.241,-0.487 0.263,-0.513 0.292,-0.532C0.321,-0.551 0.355,-0.56 0.395,-0.56C0.43,-0.56 0.459,-0.551 0.484,-0.534C0.508,-0.516 0.525,-0.491 0.535,-0.46C0.545,-0.428 0.547,-0.391 0.54,-0.35L0.516,-0.201C0.506,-0.134 0.482,-0.082 0.445,-0.045C0.408,-0.008 0.361,0.01 0.304,0.01C0.266,0.01 0.235,-0 0.212,-0.021C0.189,-0.041 0.175,-0.069 0.171,-0.104L0.154,0.026L0.129,0.18L0.004,0.18ZM0.275,-0.098C0.307,-0.098 0.333,-0.107 0.354,-0.124C0.374,-0.141 0.387,-0.168 0.392,-0.204L0.415,-0.346C0.42,-0.382 0.416,-0.409 0.401,-0.426C0.386,-0.443 0.362,-0.452 0.33,-0.452C0.298,-0.452 0.272,-0.442 0.251,-0.423C0.23,-0.404 0.217,-0.376 0.212,-0.341L0.191,-0.209C0.186,-0.174 0.19,-0.146 0.205,-0.127C0.22,-0.108 0.243,-0.098 0.275,-0.098Z" style="fill:rgb(200,200,200);fill-rule:nonzero;"></path>
            </g>
        </g>
    </g>
</svg><style>@media (prefers-color-scheme: light) { :root { filter: none; } }
@media (prefers-color-scheme: dark) { :root { filter: none; } }
</style></svg>