<?xml version="1.0" encoding="UTF-8" standalone="no"?>
<!DOCTYPE svg PUBLIC "-//W3C//DTD SVG 1.1//EN" "http://www.w3.org/Graphics/SVG/1.1/DTD/svg11.dtd">
<svg width="100%" height="100%" viewBox="0 0 128 128" version="1.1" xmlns="http://www.w3.org/2000/svg" xmlns:xlink="http://www.w3.org/1999/xlink" xml:space="preserve" xmlns:serif="http://www.serif.com/" style="fill-rule:evenodd;clip-rule:evenodd;stroke-linejoin:round;stroke-miterlimit:2;">
    <g transform="matrix(1.22469,0,0,1.22469,21.087,117.641)">
        <g>
            <g transform="matrix(0.816533,0,0,0.816533,-18.2924,-97.747)">
                <path d="M125.31,36.045C125.31,19.489 111.869,6.048 95.313,6.048L35.318,6.048C18.762,6.048 5.321,19.489 5.321,36.045L5.321,96.091C5.321,112.647 18.762,126.089 35.318,126.089L95.313,126.089C111.869,126.089 125.31,112.647 125.31,96.091L125.31,36.045Z" style="fill:white;"/>
            </g>
            <g transform="matrix(0.816533,0,0,0.816533,-17.2183,-96.0579)">
                <g>
                    <path d="M75.31,108.388C68.986,108.388 63.939,106.543 60.169,102.854C56.399,99.165 54.514,94.24 54.514,88.079L54.514,31.53L32.017,31.53L32.017,19.612L67.648,19.612L67.648,87.835C67.648,90.511 68.378,92.619 69.837,94.159C71.297,95.7 73.283,96.47 75.796,96.47L95.983,96.47L95.983,108.388L75.31,108.388Z"/>
                </g>
            </g>
        </g>
    </g>
</svg>
